<svg width="32" height="28" viewBox="0 0 32 28" fill="none" xmlns="http://www.w3.org/2000/svg">
<path d="M11.9381 26.8418C10.5544 26.8418 9.13006 26.7297 7.69721 26.5051C5.17354 26.1091 2.61888 24.789 1.89598 24.3938L0 23.3572L2.05272 22.6821C4.2966 21.9443 5.66158 21.4866 7.35126 20.7698C5.65938 19.9505 4.35544 18.4766 3.72775 16.5713L3.25022 15.1216L3.64182 15.1814C3.27048 14.8072 2.97727 14.4273 2.74998 14.0818C1.94164 12.8541 1.51366 11.3538 1.60472 10.0682L1.69457 8.80283L2.45213 9.09629C2.13255 8.49278 1.9016 7.84825 1.76586 7.17272C1.43505 5.52527 1.7119 3.77504 2.54563 2.24453L3.20554 1.03312L4.0881 2.09317C6.87934 5.44617 10.4147 7.43517 14.6107 8.01744C14.4393 6.83605 14.5678 5.69592 14.9928 4.67396C15.4877 3.48403 16.368 2.475 17.538 1.75577C18.8373 0.957191 20.4129 0.570231 21.9747 0.666178C23.6317 0.767984 25.136 1.38883 26.3309 2.4628C26.9143 2.31118 27.3443 2.14932 27.9253 1.93057C28.2749 1.79898 28.6714 1.64957 29.1675 1.47867L30.9956 0.848794L29.8035 4.25355C29.8821 4.24696 29.9632 4.24135 30.0479 4.23768L32 4.14931L30.8462 5.7262C30.78 5.81653 30.7632 5.84216 30.7398 5.87756C30.6467 6.0177 30.531 6.19201 28.9473 8.30674C28.5508 8.83628 28.3528 9.52597 28.3897 10.2491C28.5301 12.9971 28.1929 15.4834 27.387 17.6387C26.6248 19.6778 25.4437 21.4273 23.8768 22.8386C21.9378 24.5847 19.4654 25.7802 16.528 26.3916C15.087 26.6914 13.5397 26.8418 11.9381 26.8418V26.8418Z" fill="white"/>
</svg>
